# xmcd
#
# Track frame offsets: 
#        150
#        18570
#        29298
#        44469
#        58274
#        69012
#        86699
#        101262
#        121399
#        133709
#        147303
#        165019
#        185558
#        199839
#
# Disc length: 2929 seconds
#
# Revision: 3
# Processed by: cddbd v1.5.2PL0 Copyright (c) Steve Scherf et al.
# Submitted via: ExactAudioCopy v0.99pb5
#
DISCID=bc0b6f0e
DTITLE=Hillman, Chris  - The Other Side
DYEAR=2005
DGENRE=Country
TTITLE0=Eight Miles High
TTITLE1=True Love
TTITLE2=Drifting
TTITLE3=The Other Side
TTITLE4=Heaven Is My Home
TTITLE5=Touch Me
TTITLE6=The Wheel
TTITLE7=True He's Gone
TTITLE8=Heavenly Grace
TTITLE9=It Doesn't Matter
TTITLE10=Missing You
TTITLE11=The Water Is Wide
TTITLE12=I Know I Need You
TTITLE13=Our Savior's Hands
EXTD=YEAR: 2005 ID3G: 2
EXTT0=
EXTT1=
EXTT2=
EXTT3=
EXTT4=
EXTT5=
EXTT6=
EXTT7=
EXTT8=
EXTT9=
EXTT10=
EXTT11=
EXTT12=
EXTT13=
PLAYORDER=
